<svg width="206" height="175" viewBox="0 0 206 175" fill="none" xmlns="http://www.w3.org/2000/svg">
<path d="M93.243 37.2399C95.8811 33.1777 102.176 34.8644 102.43 39.7014L104.039 70.4063C104.152 72.5695 105.645 74.4136 107.738 74.9743L137.437 82.9322C142.116 84.1858 142.457 90.6939 137.935 92.4297L109.23 103.448C107.208 104.225 105.915 106.215 106.029 108.378L107.638 139.083C107.891 143.92 101.807 146.255 98.759 142.491L79.4093 118.596C78.0461 116.913 75.754 116.299 73.7317 117.075L45.0269 128.094C40.505 129.83 36.4037 124.765 39.0417 120.703L55.7877 94.916C56.9675 93.0993 56.8433 90.7296 55.4801 89.0462L36.1304 65.1513C33.0822 61.3871 36.6316 55.9214 41.3102 57.175L71.0096 65.133C73.1019 65.6936 75.3172 64.8432 76.497 63.0265L93.243 37.2399Z" fill="url(#paint0_radial_346_554)"/>
<g filter="url(#filter0_f_346_554)">
<path d="M161.588 18.0752C163.171 15.6379 166.948 16.6499 167.1 19.5521L168.021 37.1179C168.089 38.4158 168.985 39.5222 170.24 39.8586L187.23 44.4112C190.038 45.1634 190.242 49.0683 187.529 50.1097L171.108 56.4134C169.894 56.8792 169.119 58.0732 169.187 59.3711L170.107 76.9369C170.259 79.8391 166.609 81.2404 164.78 78.9819L153.71 65.312C152.892 64.3019 151.517 63.9334 150.304 64.3992L133.882 70.7028C131.169 71.7443 128.708 68.7055 130.291 66.2682L139.871 51.5161C140.579 50.4261 140.505 49.0042 139.687 47.9942L128.617 34.3243C126.788 32.0658 128.918 28.7864 131.725 29.5386L148.715 34.0912C149.971 34.4275 151.3 33.9173 152.008 32.8273L161.588 18.0752Z" fill="url(#paint1_radial_346_554)"/>
</g>
<defs>
<filter id="filter0_f_346_554" x="123.936" y="12.7051" width="69.5186" height="71.396" filterUnits="userSpaceOnUse" color-interpolation-filters="sRGB">
<feFlood flood-opacity="0" result="BackgroundImageFix"/>
<feBlend mode="normal" in="SourceGraphic" in2="BackgroundImageFix" result="shape"/>
<feGaussianBlur stdDeviation="2" result="effect1_foregroundBlur_346_554"/>
</filter>
<radialGradient id="paint0_radial_346_554" cx="0" cy="0" r="1" gradientUnits="userSpaceOnUse" gradientTransform="translate(20.9017 2.70457) rotate(57.0157) scale(204.681 1267.37)">
<stop stop-color="#B3CCFF"/>
<stop offset="0.496691" stop-color="#6EA0EC"/>
<stop offset="1" stop-color="#3C77F3"/>
</radialGradient>
<radialGradient id="paint1_radial_346_554" cx="0" cy="0" r="1" gradientUnits="userSpaceOnUse" gradientTransform="translate(119.576 -2.27298) rotate(57.0157) scale(119.278 738.564)">
<stop stop-color="#B3CCFF"/>
<stop offset="0.496691" stop-color="#6EA0EC"/>
<stop offset="1" stop-color="#3C77F3"/>
</radialGradient>
</defs>
</svg>
