<svg width="38" height="42" viewBox="0 0 38 42" fill="none" xmlns="http://www.w3.org/2000/svg">
<path d="M5.14144 0.77927C5.01953 0.531496 4.71984 0.429457 4.47207 0.551366L0.434313 2.53796C0.186537 2.65987 0.0844977 2.95955 0.206406 3.20733C0.328315 3.45511 0.628 3.55714 0.875779 3.43524L4.46489 1.66937L6.23075 5.25849C6.35266 5.50627 6.65235 5.6083 6.90012 5.4864C7.1479 5.36449 7.24994 5.0648 7.12803 4.81702L5.14144 0.77927ZM37.6401 39.784C27.8031 41.709 17.5901 38.1886 10.8834 31.1175C4.1909 24.0614 0.979488 13.4575 5.16612 1.16116L4.21948 0.838848C-0.087552 13.4888 3.21103 24.4814 10.1578 31.8056C17.0904 39.1149 27.6458 42.7587 37.8321 40.7654L37.6401 39.784Z" fill="#444444"/>
</svg>
