<svg width="80" height="80" viewBox="0 0 80 80" fill="none" xmlns="http://www.w3.org/2000/svg">
<path d="M80 40.0002C80 62.0916 62.0914 80.0002 40 80.0002C17.9086 80.0002 0 62.0916 0 40.0002C0 17.9089 17.9086 0.000244141 40 0.000244141C62.0914 0.000244141 80 17.9089 80 40.0002Z" fill="url(#paint0_radial_29_125)"/>
<path d="M80 40.0002C80 62.0916 62.0914 80.0002 40 80.0002C17.9086 80.0002 0 62.0916 0 40.0002C0 17.9089 17.9086 0.000244141 40 0.000244141C62.0914 0.000244141 80 17.9089 80 40.0002Z" fill="url(#paint1_radial_29_125)"/>
<path d="M80 40.0002C80 62.0916 62.0914 80.0002 40 80.0002C17.9086 80.0002 0 62.0916 0 40.0002C0 17.9089 17.9086 0.000244141 40 0.000244141C62.0914 0.000244141 80 17.9089 80 40.0002Z" fill="url(#paint2_radial_29_125)"/>
<path d="M52 40.0002L34 52.1246V27.8759L52 40.0002Z" fill="white"/>
<defs>
<radialGradient id="paint0_radial_29_125" cx="0" cy="0" r="1" gradientUnits="userSpaceOnUse" gradientTransform="translate(-8.8 0.000237843) rotate(42.0157) scale(119.522 740.071)">
<stop stop-color="#B3CCFF"/>
<stop offset="0.496691" stop-color="#6EA0EC"/>
<stop offset="1" stop-color="#3C77F3"/>
</radialGradient>
<radialGradient id="paint1_radial_29_125" cx="0" cy="0" r="1" gradientUnits="userSpaceOnUse" gradientTransform="translate(-8.8 0.000237843) rotate(42.0157) scale(119.522 740.071)">
<stop stop-color="#B3CCFF"/>
<stop offset="0.496691" stop-color="#6EA0EC"/>
<stop offset="1" stop-color="#3C77F3"/>
</radialGradient>
<radialGradient id="paint2_radial_29_125" cx="0" cy="0" r="1" gradientUnits="userSpaceOnUse" gradientTransform="translate(-8.8 0.000237843) rotate(42.0157) scale(119.522 740.071)">
<stop stop-color="#B3CCFF"/>
<stop offset="0.496691" stop-color="#6EA0EC"/>
<stop offset="1" stop-color="#3C77F3"/>
</radialGradient>
</defs>
</svg>
