<svg width="90" height="90" viewBox="0 0 90 90" fill="none" xmlns="http://www.w3.org/2000/svg">
<path d="M58.9733 2.3318C62.4549 -1.03554 68.2115 2.01961 67.374 6.79029L63.3849 29.5161C63.0104 31.6497 64.0522 33.7817 65.9656 34.7971L86.3465 45.6138C90.6249 47.8844 89.4981 54.3033 84.7022 54.9811L61.8559 58.2098C59.711 58.513 58.0053 60.1627 57.6308 62.2962L53.6416 85.0221C52.8042 89.7927 46.3513 90.7047 44.2246 86.3529L34.094 65.6225C33.143 63.6763 31.0469 62.5639 28.9021 62.867L6.05577 66.0958C1.25981 66.7735 -1.60157 60.9183 1.88005 57.5509L18.4653 41.5101C20.0223 40.0042 20.4326 37.6669 19.4815 35.7208L9.35091 14.9904C7.22427 10.6386 11.9088 6.10787 16.1872 8.37852L36.568 19.1951C38.4814 20.2106 40.831 19.8785 42.388 18.3726L58.9733 2.3318Z" fill="url(#paint0_radial_127_554)"/>
<defs>
<radialGradient id="paint0_radial_127_554" cx="0" cy="0" r="1" gradientUnits="userSpaceOnUse" gradientTransform="translate(7.59845 -41.5028) rotate(69.9717) scale(173.121 1071.96)">
<stop stop-color="#B3CCFF"/>
<stop offset="0.496691" stop-color="#6EA0EC"/>
<stop offset="1" stop-color="#3C77F3"/>
</radialGradient>
</defs>
</svg>
