<svg width="72" height="72" viewBox="0 0 72 72" fill="none" xmlns="http://www.w3.org/2000/svg">
<path d="M0 15.354C0 9.97962 0 7.29241 1.04593 5.23966C1.96596 3.434 3.434 1.96596 5.23966 1.04593C7.29241 0 9.97962 0 15.354 0H56.646C62.0204 0 64.7076 0 66.7603 1.04593C68.566 1.96596 70.034 3.434 70.9541 5.23966C72 7.29241 72 9.97962 72 15.354V56.646C72 62.0204 72 64.7076 70.9541 66.7603C70.034 68.566 68.566 70.034 66.7603 70.9541C64.7076 72 62.0204 72 56.646 72H15.354C9.97962 72 7.29241 72 5.23966 70.9541C3.434 70.034 1.96596 68.566 1.04593 66.7603C0 64.7076 0 62.0204 0 56.646V15.354Z" fill="url(#paint0_linear_127_596)"/>
<path fill-rule="evenodd" clip-rule="evenodd" d="M54.7149 26.7423C54.9862 25.8937 54.7149 25.2701 53.4238 25.2701H49.1545C48.0689 25.2701 47.5685 25.8088 47.2971 26.4028C47.2971 26.4028 45.126 31.367 42.0503 34.5916C41.0553 35.525 40.6029 35.822 40.0601 35.822C39.7888 35.822 39.3959 35.525 39.3959 34.6765V26.7423C39.3959 25.724 39.0809 25.2701 38.1762 25.2701H31.4673C30.7889 25.2701 30.3809 25.7428 30.3809 26.1907C30.3809 27.156 31.9186 27.3786 32.0772 30.0942V35.9918C32.0772 37.2849 31.8282 37.5193 31.2854 37.5193C29.8381 37.5193 26.3175 32.5329 24.2294 26.8271C23.8202 25.7181 23.4098 25.2701 22.3187 25.2701H18.0493C16.8295 25.2701 16.5856 25.8088 16.5856 26.4028C16.5856 27.4635 18.033 32.7248 23.3249 39.6831C26.8528 44.4352 31.8234 47.0111 36.3465 47.0111C39.0603 47.0111 39.396 46.439 39.396 45.4535V41.8619C39.396 40.7177 39.6531 40.4893 40.5125 40.4893C41.1457 40.4893 42.2312 40.7863 44.7642 43.0775C47.6589 45.7929 48.1362 47.0111 49.7644 47.0111H54.0337C55.2535 47.0111 55.8634 46.439 55.5116 45.3099C55.1266 44.1846 53.7445 42.5519 51.9106 40.6166C50.9155 39.5134 49.4229 38.3255 48.9706 37.7313C48.3374 36.9677 48.5183 36.6282 48.9706 35.9494C48.9706 35.9494 54.1721 29.0758 54.7149 26.7423Z" fill="white"/>
<defs>
<linearGradient id="paint0_linear_127_596" x1="40.9761" y1="74.1472" x2="7.31716" y2="-1.54184e-06" gradientUnits="userSpaceOnUse">
<stop offset="0.0729167" stop-color="#1568C8"/>
<stop offset="0.927083" stop-color="#3F98FF"/>
</linearGradient>
</defs>
</svg>
