<svg width="166" height="103" viewBox="0 0 166 103" fill="none" xmlns="http://www.w3.org/2000/svg">
<path d="M166 63.0002C166 85.0916 148.091 103 126 103C103.909 103 86 85.0916 86 63.0002C86 40.9089 103.909 23.0002 126 23.0002C148.091 23.0002 166 40.9089 166 63.0002Z" fill="url(#paint0_radial_29_124)"/>
<path d="M166 63.0002C166 85.0916 148.091 103 126 103C103.909 103 86 85.0916 86 63.0002C86 40.9089 103.909 23.0002 126 23.0002C148.091 23.0002 166 40.9089 166 63.0002Z" fill="url(#paint1_radial_29_124)"/>
<path d="M166 63.0002C166 85.0916 148.091 103 126 103C103.909 103 86 85.0916 86 63.0002C86 40.9089 103.909 23.0002 126 23.0002C148.091 23.0002 166 40.9089 166 63.0002Z" fill="url(#paint2_radial_29_124)"/>
<path d="M138 63.0002L120 75.1246V50.8759L138 63.0002Z" fill="white"/>
<path d="M4.634 13.1402C3.78467 13.1402 3.08933 12.9769 2.548 12.6502C2.016 12.3142 1.61933 11.8616 1.358 11.2922C1.09667 10.7229 0.952 10.0742 0.924 9.34624C0.914667 8.96358 0.91 8.55291 0.91 8.11424C0.91 7.67558 0.914667 7.25558 0.924 6.85424C0.952 6.12624 1.09667 5.47758 1.358 4.90824C1.61933 4.32958 2.016 3.87691 2.548 3.55024C3.08933 3.22358 3.78467 3.06024 4.634 3.06024C5.29667 3.06024 5.86133 3.15358 6.328 3.34024C6.79467 3.52691 7.17267 3.77424 7.462 4.08224C7.76067 4.38091 7.98 4.70758 8.12 5.06224C8.26933 5.40758 8.35333 5.74824 8.372 6.08424C8.38133 6.16824 8.35333 6.23824 8.288 6.29424C8.232 6.34091 8.162 6.36424 8.078 6.36424H7.798C7.72333 6.36424 7.658 6.34558 7.602 6.30824C7.546 6.26158 7.50867 6.18224 7.49 6.07024C7.31267 5.23958 6.97667 4.67024 6.482 4.36224C5.99667 4.05424 5.38067 3.90024 4.634 3.90024C3.78467 3.90024 3.108 4.14291 2.604 4.62824C2.10933 5.10424 1.84333 5.86958 1.806 6.92424C1.778 7.68958 1.778 8.47358 1.806 9.27624C1.84333 10.3309 2.10933 11.1009 2.604 11.5862C3.108 12.0622 3.78467 12.3002 4.634 12.3002C5.38067 12.3002 5.99667 12.1462 6.482 11.8382C6.97667 11.5302 7.31267 10.9609 7.49 10.1302C7.50867 10.0182 7.546 9.94358 7.602 9.90624C7.658 9.85958 7.72333 9.83624 7.798 9.83624H8.078C8.162 9.83624 8.232 9.86424 8.288 9.92024C8.35333 9.96691 8.38133 10.0322 8.372 10.1162C8.35333 10.4522 8.26933 10.7976 8.12 11.1522C7.98 11.4976 7.76067 11.8242 7.462 12.1322C7.17267 12.4309 6.79467 12.6736 6.328 12.8602C5.86133 13.0469 5.29667 13.1402 4.634 13.1402ZM13.0251 13.1402C12.3531 13.1402 11.7885 13.0002 11.3311 12.7202C10.8831 12.4402 10.5378 12.0576 10.2951 11.5722C10.0618 11.0869 9.93581 10.5456 9.91714 9.94824C9.90781 9.80824 9.90314 9.61224 9.90314 9.36024C9.90314 9.10824 9.90781 8.91224 9.91714 8.77224C9.93581 8.16558 10.0618 7.62424 10.2951 7.14824C10.5378 6.66291 10.8831 6.28024 11.3311 6.00024C11.7885 5.72024 12.3531 5.58024 13.0251 5.58024C13.6971 5.58024 14.2571 5.72024 14.7051 6.00024C15.1625 6.28024 15.5078 6.66291 15.7411 7.14824C15.9838 7.62424 16.1145 8.16558 16.1331 8.77224C16.1425 8.91224 16.1471 9.10824 16.1471 9.36024C16.1471 9.61224 16.1425 9.80824 16.1331 9.94824C16.1145 10.5456 15.9838 11.0869 15.7411 11.5722C15.5078 12.0576 15.1625 12.4402 14.7051 12.7202C14.2571 13.0002 13.6971 13.1402 13.0251 13.1402ZM13.0251 12.3282C13.6785 12.3282 14.2105 12.1182 14.6211 11.6982C15.0318 11.2782 15.2511 10.6716 15.2791 9.87824C15.2885 9.73824 15.2931 9.56558 15.2931 9.36024C15.2931 9.15491 15.2885 8.98224 15.2791 8.84224C15.2511 8.03958 15.0318 7.43291 14.6211 7.02224C14.2105 6.60224 13.6785 6.39224 13.0251 6.39224C12.3718 6.39224 11.8398 6.60224 11.4291 7.02224C11.0185 7.43291 10.7991 8.03958 10.7711 8.84224C10.7618 8.98224 10.7571 9.15491 10.7571 9.36024C10.7571 9.56558 10.7618 9.73824 10.7711 9.87824C10.7991 10.6716 11.0185 11.2782 11.4291 11.6982C11.8398 12.1182 12.3718 12.3282 13.0251 12.3282ZM18.3678 13.0002C18.2744 13.0002 18.1998 12.9722 18.1438 12.9162C18.0878 12.8602 18.0598 12.7856 18.0598 12.6922V6.02824C18.0598 5.93491 18.0878 5.86024 18.1438 5.80424C18.1998 5.74824 18.2744 5.72024 18.3678 5.72024H21.1258C21.9004 5.72024 22.4931 5.89291 22.9038 6.23824C23.3238 6.58358 23.5338 7.04558 23.5338 7.62424C23.5338 8.07224 23.4498 8.40358 23.2818 8.61824C23.1138 8.83291 22.8711 9.01491 22.5538 9.16424C22.9271 9.30424 23.2071 9.55158 23.3938 9.90624C23.5804 10.2609 23.6738 10.6156 23.6738 10.9702C23.6738 11.6329 23.4451 12.1369 22.9878 12.4822C22.5398 12.8276 21.9424 13.0002 21.1958 13.0002H18.3678ZM18.9138 12.1882H21.0838C21.5971 12.1882 22.0124 12.0856 22.3298 11.8802C22.6564 11.6749 22.8198 11.3716 22.8198 10.9702C22.8198 10.5409 22.6751 10.2282 22.3858 10.0322C22.0964 9.83624 21.6624 9.73824 21.0838 9.73824H18.9138V12.1882ZM18.9138 8.92624H20.9858C21.4991 8.92624 21.9098 8.80958 22.2178 8.57624C22.5258 8.34291 22.6798 8.02558 22.6798 7.62424C22.6798 7.21358 22.5258 6.92891 22.2178 6.77024C21.9098 6.61158 21.4991 6.53224 20.9858 6.53224H18.9138V8.92624ZM28.3497 13.1402C27.4443 13.1402 26.7257 12.8462 26.1937 12.2582C25.6617 11.6609 25.3583 10.8816 25.2837 9.92024C25.2743 9.78024 25.2697 9.59358 25.2697 9.36024C25.2697 9.12691 25.2743 8.94024 25.2837 8.80024C25.3303 8.16558 25.4797 7.60558 25.7317 7.12024C25.9837 6.63491 26.329 6.25691 26.7677 5.98624C27.2157 5.71558 27.743 5.58024 28.3497 5.58024C29.003 5.58024 29.5583 5.72491 30.0157 6.01424C30.473 6.30358 30.823 6.71891 31.0657 7.26024C31.3177 7.80158 31.4437 8.44558 31.4437 9.19224V9.40224C31.4437 9.49558 31.411 9.57024 31.3457 9.62624C31.2897 9.68224 31.215 9.71024 31.1217 9.71024H26.1377C26.1377 9.71024 26.1377 9.72891 26.1377 9.76624C26.1377 9.80358 26.1377 9.83158 26.1377 9.85024C26.1563 10.2702 26.2543 10.6716 26.4317 11.0542C26.609 11.4276 26.861 11.7356 27.1877 11.9782C27.5143 12.2116 27.9017 12.3282 28.3497 12.3282C28.751 12.3282 29.0823 12.2676 29.3437 12.1462C29.6143 12.0249 29.829 11.8942 29.9877 11.7542C30.1463 11.6049 30.249 11.4929 30.2957 11.4182C30.3797 11.2969 30.445 11.2269 30.4917 11.2082C30.5383 11.1802 30.613 11.1662 30.7157 11.1662H30.9397C31.0237 11.1662 31.0937 11.1942 31.1497 11.2502C31.215 11.2969 31.243 11.3622 31.2337 11.4462C31.2243 11.5769 31.1497 11.7402 31.0097 11.9362C30.879 12.1229 30.6877 12.3096 30.4357 12.4962C30.193 12.6829 29.8943 12.8369 29.5397 12.9582C29.185 13.0796 28.7883 13.1402 28.3497 13.1402ZM26.1377 8.92624H30.5897V8.87024C30.5897 8.40358 30.501 7.98358 30.3237 7.61024C30.1463 7.23691 29.8897 6.94291 29.5537 6.72824C29.2177 6.50424 28.8163 6.39224 28.3497 6.39224C27.883 6.39224 27.4817 6.50424 27.1457 6.72824C26.819 6.94291 26.567 7.23691 26.3897 7.61024C26.2217 7.98358 26.1377 8.40358 26.1377 8.87024V8.92624ZM35.5163 13.0002C35.4229 13.0002 35.3483 12.9722 35.2923 12.9162C35.2363 12.8602 35.2083 12.7856 35.2083 12.6922V6.53224H32.6463C32.5529 6.53224 32.4783 6.50424 32.4223 6.44824C32.3663 6.39224 32.3383 6.31758 32.3383 6.22424V6.02824C32.3383 5.93491 32.3663 5.86024 32.4223 5.80424C32.4783 5.74824 32.5529 5.72024 32.6463 5.72024H38.6243C38.7176 5.72024 38.7923 5.74824 38.8483 5.80424C38.9043 5.86024 38.9323 5.93491 38.9323 6.02824V6.22424C38.9323 6.31758 38.9043 6.39224 38.8483 6.44824C38.7923 6.50424 38.7176 6.53224 38.6243 6.53224H36.0623V12.6922C36.0623 12.7856 36.0343 12.8602 35.9783 12.9162C35.9223 12.9722 35.8476 13.0002 35.7542 13.0002H35.5163ZM40.4172 15.6602C40.3239 15.6602 40.2492 15.6322 40.1932 15.5762C40.1372 15.5202 40.1092 15.4456 40.1092 15.3522V15.1562C40.1092 15.0629 40.1372 14.9882 40.1932 14.9322C40.2492 14.8762 40.3239 14.8482 40.4172 14.8482H40.7392C40.9632 14.8482 41.1452 14.8016 41.2852 14.7082C41.4252 14.6149 41.5512 14.4562 41.6632 14.2322C41.7846 14.0082 41.9292 13.7002 42.0972 13.3082L45.2332 5.93024C45.2612 5.86491 45.2986 5.81358 45.3452 5.77624C45.3919 5.73891 45.4619 5.72024 45.5552 5.72024H45.8072C45.8819 5.72024 45.9472 5.74824 46.0032 5.80424C46.0592 5.86024 46.0872 5.92558 46.0872 6.00024C46.0872 6.03758 46.0779 6.07491 46.0592 6.11224C46.0499 6.14958 46.0312 6.20558 46.0032 6.28024L43.3432 12.5242C43.2219 12.8136 43.0866 13.1356 42.9372 13.4902C42.7879 13.8542 42.6199 14.1996 42.4332 14.5262C42.2466 14.8622 42.0272 15.1329 41.7752 15.3382C41.5232 15.5529 41.2292 15.6602 40.8932 15.6602H40.4172ZM42.4892 12.7622L39.6892 6.28024C39.6332 6.14024 39.6052 6.04691 39.6052 6.00024C39.6052 5.92558 39.6332 5.86024 39.6892 5.80424C39.7452 5.74824 39.8106 5.72024 39.8852 5.72024H40.1512C40.2446 5.72024 40.3146 5.74358 40.3612 5.79024C40.4079 5.82758 40.4452 5.87424 40.4732 5.93024L42.9372 11.6842L42.4892 12.7622ZM50.3614 13.1402C49.4561 13.1402 48.7374 12.8462 48.2054 12.2582C47.6734 11.6609 47.3701 10.8816 47.2954 9.92024C47.2861 9.78024 47.2814 9.59358 47.2814 9.36024C47.2814 9.12691 47.2861 8.94024 47.2954 8.80024C47.3421 8.16558 47.4914 7.60558 47.7434 7.12024C47.9954 6.63491 48.3407 6.25691 48.7794 5.98624C49.2274 5.71558 49.7547 5.58024 50.3614 5.58024C51.0147 5.58024 51.5701 5.72491 52.0274 6.01424C52.4847 6.30358 52.8347 6.71891 53.0774 7.26024C53.3294 7.80158 53.4554 8.44558 53.4554 9.19224V9.40224C53.4554 9.49558 53.4227 9.57024 53.3574 9.62624C53.3014 9.68224 53.2267 9.71024 53.1334 9.71024H48.1494C48.1494 9.71024 48.1494 9.72891 48.1494 9.76624C48.1494 9.80358 48.1494 9.83158 48.1494 9.85024C48.1681 10.2702 48.2661 10.6716 48.4434 11.0542C48.6207 11.4276 48.8727 11.7356 49.1994 11.9782C49.5261 12.2116 49.9134 12.3282 50.3614 12.3282C50.7627 12.3282 51.0941 12.2676 51.3554 12.1462C51.6261 12.0249 51.8407 11.8942 51.9994 11.7542C52.1581 11.6049 52.2607 11.4929 52.3074 11.4182C52.3914 11.2969 52.4567 11.2269 52.5034 11.2082C52.5501 11.1802 52.6247 11.1662 52.7274 11.1662H52.9514C53.0354 11.1662 53.1054 11.1942 53.1614 11.2502C53.2267 11.2969 53.2547 11.3622 53.2454 11.4462C53.2361 11.5769 53.1614 11.7402 53.0214 11.9362C52.8907 12.1229 52.6994 12.3096 52.4474 12.4962C52.2047 12.6829 51.9061 12.8369 51.5514 12.9582C51.1967 13.0796 50.8001 13.1402 50.3614 13.1402ZM48.1494 8.92624H52.6014V8.87024C52.6014 8.40358 52.5127 7.98358 52.3354 7.61024C52.1581 7.23691 51.9014 6.94291 51.5654 6.72824C51.2294 6.50424 50.8281 6.39224 50.3614 6.39224C49.8947 6.39224 49.4934 6.50424 49.1574 6.72824C48.8307 6.94291 48.5787 7.23691 48.4014 7.61024C48.2334 7.98358 48.1494 8.40358 48.1494 8.87024V8.92624ZM55.61 13.0002C55.5166 13.0002 55.442 12.9722 55.386 12.9162C55.33 12.8602 55.302 12.7856 55.302 12.6922V5.98624C55.302 5.91158 55.33 5.85091 55.386 5.80424C55.4513 5.74824 55.5166 5.72024 55.582 5.72024H55.904C56.044 5.72024 56.1513 5.79024 56.226 5.93024L58.816 10.8302L61.406 5.93024C61.4806 5.79024 61.588 5.72024 61.728 5.72024H62.05C62.1246 5.72024 62.19 5.74824 62.246 5.80424C62.302 5.85091 62.33 5.91158 62.33 5.98624V12.6922C62.33 12.7856 62.302 12.8602 62.246 12.9162C62.19 12.9722 62.1153 13.0002 62.022 13.0002H61.784C61.6906 13.0002 61.616 12.9722 61.56 12.9162C61.504 12.8602 61.476 12.7856 61.476 12.6922V6.67224H61.882L59.432 11.4182C59.3853 11.5116 59.3293 11.6002 59.264 11.6842C59.1986 11.7682 59.096 11.8102 58.956 11.8102H58.676C58.536 11.8102 58.4333 11.7682 58.368 11.6842C58.3026 11.6002 58.2466 11.5116 58.2 11.4182L55.82 6.93824H56.156V12.6922C56.156 12.7856 56.128 12.8602 56.072 12.9162C56.016 12.9722 55.9413 13.0002 55.848 13.0002H55.61ZM1.442 30.0002C1.34867 30.0002 1.274 29.9722 1.218 29.9162C1.162 29.8602 1.134 29.7856 1.134 29.6922V23.0282C1.134 22.9349 1.162 22.8602 1.218 22.8042C1.274 22.7482 1.34867 22.7202 1.442 22.7202H6.622C6.71533 22.7202 6.79 22.7482 6.846 22.8042C6.902 22.8602 6.93 22.9349 6.93 23.0282V29.6922C6.93 29.7856 6.902 29.8602 6.846 29.9162C6.79 29.9722 6.71533 30.0002 6.622 30.0002H6.384C6.29067 30.0002 6.216 29.9722 6.16 29.9162C6.104 29.8602 6.076 29.7856 6.076 29.6922V23.5322H1.988V29.6922C1.988 29.7856 1.96 29.8602 1.904 29.9162C1.848 29.9722 1.77333 30.0002 1.68 30.0002H1.442ZM11.9724 30.1402C11.3004 30.1402 10.7357 30.0002 10.2784 29.7202C9.83041 29.4402 9.48507 29.0576 9.24241 28.5722C9.00907 28.0869 8.88307 27.5456 8.86441 26.9482C8.85507 26.8082 8.85041 26.6122 8.85041 26.3602C8.85041 26.1082 8.85507 25.9122 8.86441 25.7722C8.88307 25.1656 9.00907 24.6242 9.24241 24.1482C9.48507 23.6629 9.83041 23.2802 10.2784 23.0002C10.7357 22.7202 11.3004 22.5802 11.9724 22.5802C12.6444 22.5802 13.2044 22.7202 13.6524 23.0002C14.1097 23.2802 14.4551 23.6629 14.6884 24.1482C14.9311 24.6242 15.0617 25.1656 15.0804 25.7722C15.0897 25.9122 15.0944 26.1082 15.0944 26.3602C15.0944 26.6122 15.0897 26.8082 15.0804 26.9482C15.0617 27.5456 14.9311 28.0869 14.6884 28.5722C14.4551 29.0576 14.1097 29.4402 13.6524 29.7202C13.2044 30.0002 12.6444 30.1402 11.9724 30.1402ZM11.9724 29.3282C12.6257 29.3282 13.1577 29.1182 13.5684 28.6982C13.9791 28.2782 14.1984 27.6716 14.2264 26.8782C14.2357 26.7382 14.2404 26.5656 14.2404 26.3602C14.2404 26.1549 14.2357 25.9822 14.2264 25.8422C14.1984 25.0396 13.9791 24.4329 13.5684 24.0222C13.1577 23.6022 12.6257 23.3922 11.9724 23.3922C11.3191 23.3922 10.7871 23.6022 10.3764 24.0222C9.96574 24.4329 9.74641 25.0396 9.71841 25.8422C9.70907 25.9822 9.70441 26.1549 9.70441 26.3602C9.70441 26.5656 9.70907 26.7382 9.71841 26.8782C9.74641 27.6716 9.96574 28.2782 10.3764 28.6982C10.7871 29.1182 11.3191 29.3282 11.9724 29.3282ZM19.765 30.1402C19.1117 30.1402 18.5564 30.0142 18.099 29.7622C17.6417 29.5009 17.2917 29.1276 17.049 28.6422C16.8157 28.1569 16.6897 27.5829 16.671 26.9202C16.6617 26.7802 16.657 26.5936 16.657 26.3602C16.657 26.1269 16.6617 25.9402 16.671 25.8002C16.6897 25.1282 16.8157 24.5542 17.049 24.0782C17.2917 23.5929 17.6417 23.2242 18.099 22.9722C18.5564 22.7109 19.1117 22.5802 19.765 22.5802C20.2597 22.5802 20.6844 22.6502 21.039 22.7902C21.403 22.9209 21.7017 23.0982 21.935 23.3222C22.1684 23.5369 22.3457 23.7749 22.467 24.0362C22.5884 24.2976 22.6537 24.5542 22.663 24.8062C22.6724 24.8996 22.6444 24.9742 22.579 25.0302C22.5137 25.0862 22.439 25.1142 22.355 25.1142H22.159C22.0657 25.1142 21.9957 25.0956 21.949 25.0582C21.9117 25.0116 21.8697 24.9322 21.823 24.8202C21.627 24.2882 21.3564 23.9196 21.011 23.7142C20.675 23.4996 20.2597 23.3922 19.765 23.3922C19.1304 23.3922 18.603 23.5882 18.183 23.9802C17.7724 24.3629 17.553 24.9929 17.525 25.8702C17.5064 26.1969 17.5064 26.5236 17.525 26.8502C17.553 27.7276 17.7724 28.3622 18.183 28.7542C18.603 29.1369 19.1304 29.3282 19.765 29.3282C20.2597 29.3282 20.675 29.2256 21.011 29.0202C21.3564 28.8056 21.627 28.4322 21.823 27.9002C21.8697 27.7882 21.9117 27.7136 21.949 27.6762C21.9957 27.6296 22.0657 27.6062 22.159 27.6062H22.355C22.439 27.6062 22.5137 27.6342 22.579 27.6902C22.6444 27.7462 22.6724 27.8209 22.663 27.9142C22.6537 28.1196 22.6117 28.3249 22.537 28.5302C22.4624 28.7356 22.3457 28.9362 22.187 29.1322C22.0377 29.3282 21.851 29.5009 21.627 29.6502C21.403 29.7996 21.1324 29.9162 20.815 30.0002C20.507 30.0936 20.157 30.1402 19.765 30.1402ZM24.8209 30.0002C24.7276 30.0002 24.6529 29.9722 24.5969 29.9162C24.5409 29.8602 24.5129 29.7856 24.5129 29.6922V22.9862C24.5129 22.9116 24.5409 22.8509 24.5969 22.8042C24.6622 22.7482 24.7276 22.7202 24.7929 22.7202H25.1149C25.2549 22.7202 25.3622 22.7902 25.4369 22.9302L28.0269 27.8302L30.6169 22.9302C30.6916 22.7902 30.7989 22.7202 30.9389 22.7202H31.2609C31.3356 22.7202 31.4009 22.7482 31.4569 22.8042C31.5129 22.8509 31.5409 22.9116 31.5409 22.9862V29.6922C31.5409 29.7856 31.5129 29.8602 31.4569 29.9162C31.4009 29.9722 31.3262 30.0002 31.2329 30.0002H30.9949C30.9016 30.0002 30.8269 29.9722 30.7709 29.9162C30.7149 29.8602 30.6869 29.7856 30.6869 29.6922V23.6722H31.0929L28.6429 28.4182C28.5962 28.5116 28.5402 28.6002 28.4749 28.6842C28.4096 28.7682 28.3069 28.8102 28.1669 28.8102H27.8869C27.7469 28.8102 27.6442 28.7682 27.5789 28.6842C27.5136 28.6002 27.4576 28.5116 27.4109 28.4182L25.0309 23.9382H25.3669V29.6922C25.3669 29.7856 25.3389 29.8602 25.2829 29.9162C25.2269 29.9722 25.1522 30.0002 25.0589 30.0002H24.8209ZM36.5818 30.1402C35.9098 30.1402 35.3451 30.0002 34.8878 29.7202C34.4398 29.4402 34.0944 29.0576 33.8518 28.5722C33.6184 28.0869 33.4924 27.5456 33.4738 26.9482C33.4644 26.8082 33.4598 26.6122 33.4598 26.3602C33.4598 26.1082 33.4644 25.9122 33.4738 25.7722C33.4924 25.1656 33.6184 24.6242 33.8518 24.1482C34.0944 23.6629 34.4398 23.2802 34.8878 23.0002C35.3451 22.7202 35.9098 22.5802 36.5818 22.5802C37.2538 22.5802 37.8138 22.7202 38.2618 23.0002C38.7191 23.2802 39.0644 23.6629 39.2978 24.1482C39.5404 24.6242 39.6711 25.1656 39.6898 25.7722C39.6991 25.9122 39.7038 26.1082 39.7038 26.3602C39.7038 26.6122 39.6991 26.8082 39.6898 26.9482C39.6711 27.5456 39.5404 28.0869 39.2978 28.5722C39.0644 29.0576 38.7191 29.4402 38.2618 29.7202C37.8138 30.0002 37.2538 30.1402 36.5818 30.1402ZM36.5818 29.3282C37.2351 29.3282 37.7671 29.1182 38.1778 28.6982C38.5884 28.2782 38.8078 27.6716 38.8358 26.8782C38.8451 26.7382 38.8498 26.5656 38.8498 26.3602C38.8498 26.1549 38.8451 25.9822 38.8358 25.8422C38.8078 25.0396 38.5884 24.4329 38.1778 24.0222C37.7671 23.6022 37.2351 23.3922 36.5818 23.3922C35.9284 23.3922 35.3964 23.6022 34.9858 24.0222C34.5751 24.4329 34.3558 25.0396 34.3278 25.8422C34.3184 25.9822 34.3138 26.1549 34.3138 26.3602C34.3138 26.5656 34.3184 26.7382 34.3278 26.8782C34.3558 27.6716 34.5751 28.2782 34.9858 28.6982C35.3964 29.1182 35.9284 29.3282 36.5818 29.3282ZM43.8424 30.0002C43.7491 30.0002 43.6744 29.9722 43.6184 29.9162C43.5624 29.8602 43.5344 29.7856 43.5344 29.6922V23.5322H40.9724C40.8791 23.5322 40.8044 23.5042 40.7484 23.4482C40.6924 23.3922 40.6644 23.3176 40.6644 23.2242V23.0282C40.6644 22.9349 40.6924 22.8602 40.7484 22.8042C40.8044 22.7482 40.8791 22.7202 40.9724 22.7202H46.9504C47.0438 22.7202 47.1184 22.7482 47.1744 22.8042C47.2304 22.8602 47.2584 22.9349 47.2584 23.0282V23.2242C47.2584 23.3176 47.2304 23.3922 47.1744 23.4482C47.1184 23.5042 47.0438 23.5322 46.9504 23.5322H44.3884V29.6922C44.3884 29.7856 44.3604 29.8602 44.3044 29.9162C44.2484 29.9722 44.1738 30.0002 44.0804 30.0002H43.8424ZM48.8974 32.6602C48.8041 32.6602 48.7294 32.6322 48.6734 32.5762C48.6174 32.5202 48.5894 32.4456 48.5894 32.3522V23.0282C48.5894 22.9349 48.6174 22.8602 48.6734 22.8042C48.7294 22.7482 48.8041 22.7202 48.8974 22.7202H49.1354C49.2287 22.7202 49.3034 22.7482 49.3594 22.8042C49.4154 22.8602 49.4434 22.9349 49.4434 23.0282V23.6862C49.6767 23.3689 49.9801 23.1076 50.3534 22.9022C50.7361 22.6876 51.2167 22.5802 51.7954 22.5802C52.3461 22.5802 52.8081 22.6782 53.1814 22.8742C53.5547 23.0609 53.8581 23.3129 54.0914 23.6302C54.3247 23.9476 54.4974 24.3022 54.6094 24.6942C54.7214 25.0862 54.7821 25.4876 54.7914 25.8982C54.8007 26.0382 54.8054 26.1922 54.8054 26.3602C54.8054 26.5282 54.8007 26.6822 54.7914 26.8222C54.7821 27.2329 54.7214 27.6342 54.6094 28.0262C54.4974 28.4182 54.3247 28.7729 54.0914 29.0902C53.8581 29.4076 53.5547 29.6642 53.1814 29.8602C52.8081 30.0469 52.3461 30.1402 51.7954 30.1402C51.2167 30.1402 50.7361 30.0329 50.3534 29.8182C49.9801 29.6036 49.6767 29.3422 49.4434 29.0342V32.3522C49.4434 32.4456 49.4154 32.5202 49.3594 32.5762C49.3034 32.6322 49.2287 32.6602 49.1354 32.6602H48.8974ZM51.7114 29.3282C52.2621 29.3282 52.6961 29.2069 53.0134 28.9642C53.3307 28.7216 53.5594 28.4042 53.6994 28.0122C53.8394 27.6202 53.9187 27.2002 53.9374 26.7522C53.9467 26.4909 53.9467 26.2296 53.9374 25.9682C53.9187 25.5202 53.8394 25.1002 53.6994 24.7082C53.5594 24.3162 53.3307 23.9989 53.0134 23.7562C52.6961 23.5136 52.2621 23.3922 51.7114 23.3922C51.1794 23.3922 50.7501 23.5182 50.4234 23.7702C50.0967 24.0222 49.8541 24.3396 49.6954 24.7222C49.5461 25.0956 49.4621 25.4736 49.4434 25.8562C49.4341 25.9962 49.4294 26.1782 49.4294 26.4022C49.4294 26.6262 49.4341 26.8082 49.4434 26.9482C49.4527 27.3216 49.5367 27.6902 49.6954 28.0542C49.8634 28.4182 50.1107 28.7216 50.4374 28.9642C50.7734 29.2069 51.1981 29.3282 51.7114 29.3282ZM59.4122 30.1402C58.5068 30.1402 57.7882 29.8462 57.2562 29.2582C56.7242 28.6609 56.4208 27.8816 56.3462 26.9202C56.3368 26.7802 56.3322 26.5936 56.3322 26.3602C56.3322 26.1269 56.3368 25.9402 56.3462 25.8002C56.3928 25.1656 56.5422 24.6056 56.7942 24.1202C57.0462 23.6349 57.3915 23.2569 57.8302 22.9862C58.2782 22.7156 58.8055 22.5802 59.4122 22.5802C60.0655 22.5802 60.6208 22.7249 61.0782 23.0142C61.5355 23.3036 61.8855 23.7189 62.1282 24.2602C62.3802 24.8016 62.5062 25.4456 62.5062 26.1922V26.4022C62.5062 26.4956 62.4735 26.5702 62.4082 26.6262C62.3522 26.6822 62.2775 26.7102 62.1842 26.7102H57.2002C57.2002 26.7102 57.2002 26.7289 57.2002 26.7662C57.2002 26.8036 57.2002 26.8316 57.2002 26.8502C57.2188 27.2702 57.3168 27.6716 57.4942 28.0542C57.6715 28.4276 57.9235 28.7356 58.2502 28.9782C58.5768 29.2116 58.9642 29.3282 59.4122 29.3282C59.8135 29.3282 60.1448 29.2676 60.4062 29.1462C60.6768 29.0249 60.8915 28.8942 61.0502 28.7542C61.2088 28.6049 61.3115 28.4929 61.3582 28.4182C61.4422 28.2969 61.5075 28.2269 61.5542 28.2082C61.6008 28.1802 61.6755 28.1662 61.7782 28.1662H62.0022C62.0862 28.1662 62.1562 28.1942 62.2122 28.2502C62.2775 28.2969 62.3055 28.3622 62.2962 28.4462C62.2868 28.5769 62.2122 28.7402 62.0722 28.9362C61.9415 29.1229 61.7502 29.3096 61.4982 29.4962C61.2555 29.6829 60.9568 29.8369 60.6022 29.9582C60.2475 30.0796 59.8508 30.1402 59.4122 30.1402ZM57.2002 25.9262H61.6522V25.8702C61.6522 25.4036 61.5635 24.9836 61.3862 24.6102C61.2088 24.2369 60.9522 23.9429 60.6162 23.7282C60.2802 23.5042 59.8788 23.3922 59.4122 23.3922C58.9455 23.3922 58.5442 23.5042 58.2082 23.7282C57.8815 23.9429 57.6295 24.2369 57.4522 24.6102C57.2842 24.9836 57.2002 25.4036 57.2002 25.8702V25.9262ZM66.5788 30.0002C66.4854 30.0002 66.4108 29.9722 66.3548 29.9162C66.2988 29.8602 66.2708 29.7856 66.2708 29.6922V23.5322H63.7088C63.6154 23.5322 63.5408 23.5042 63.4848 23.4482C63.4288 23.3922 63.4008 23.3176 63.4008 23.2242V23.0282C63.4008 22.9349 63.4288 22.8602 63.4848 22.8042C63.5408 22.7482 63.6154 22.7202 63.7088 22.7202H69.6868C69.7801 22.7202 69.8548 22.7482 69.9108 22.8042C69.9668 22.8602 69.9948 22.9349 69.9948 23.0282V23.2242C69.9948 23.3176 69.9668 23.3922 69.9108 23.4482C69.8548 23.5042 69.7801 23.5322 69.6868 23.5322H67.1248V29.6922C67.1248 29.7856 67.0968 29.8602 67.0408 29.9162C66.9848 29.9722 66.9101 30.0002 66.8167 30.0002H66.5788ZM71.6197 30.0002C71.5264 30.0002 71.4517 29.9722 71.3957 29.9162C71.3397 29.8602 71.3117 29.7856 71.3117 29.6922V23.0282C71.3117 22.9349 71.3397 22.8602 71.3957 22.8042C71.4517 22.7482 71.5264 22.7202 71.6197 22.7202H71.8577C71.9511 22.7202 72.0257 22.7482 72.0817 22.8042C72.1377 22.8602 72.1657 22.9349 72.1657 23.0282V25.1562H73.8457C74.7977 25.1562 75.4744 25.3802 75.8757 25.8282C76.2864 26.2762 76.4917 26.8782 76.4917 27.6342C76.4917 28.4556 76.2584 29.0576 75.7917 29.4402C75.3344 29.8136 74.6157 30.0002 73.6357 30.0002H71.6197ZM72.1657 29.1882H73.7617C74.4151 29.1882 74.8911 29.0762 75.1897 28.8522C75.4884 28.6189 75.6377 28.2129 75.6377 27.6342C75.6377 27.0742 75.4931 26.6589 75.2037 26.3882C74.9144 26.1082 74.4337 25.9682 73.7617 25.9682H72.1657V29.1882ZM78.2919 27.9982C78.1986 27.9982 78.1239 27.9702 78.0679 27.9142C78.0119 27.8582 77.9839 27.7836 77.9839 27.6902V20.5082C77.9839 20.4149 78.0119 20.3402 78.0679 20.2842C78.1239 20.2282 78.1986 20.2002 78.2919 20.2002H78.5299C78.6233 20.2002 78.6979 20.2282 78.7539 20.2842C78.8099 20.3402 78.8379 20.4149 78.8379 20.5082V27.6902C78.8379 27.7836 78.8099 27.8582 78.7539 27.9142C78.6979 27.9702 78.6233 27.9982 78.5299 27.9982H78.2919ZM78.1379 30.0002C78.0446 30.0002 77.9699 29.9722 77.9139 29.9162C77.8579 29.8602 77.8299 29.7856 77.8299 29.6922V29.1602C77.8299 29.0669 77.8579 28.9922 77.9139 28.9362C77.9699 28.8709 78.0446 28.8382 78.1379 28.8382H78.6699C78.7633 28.8382 78.8379 28.8709 78.8939 28.9362C78.9593 28.9922 78.9919 29.0669 78.9919 29.1602V29.6922C78.9919 29.7856 78.9593 29.8602 78.8939 29.9162C78.8379 29.9722 78.7633 30.0002 78.6699 30.0002H78.1379Z" fill="#444444"/>
<path d="M70.6133 70.8846C70.8661 70.9957 70.9809 71.2907 70.8698 71.5435L69.0593 75.6632C68.9482 75.916 68.6532 76.0309 68.4004 75.9198C68.1476 75.8087 68.0328 75.5137 68.1439 75.2609L69.7532 71.5989L66.0912 69.9896C65.8384 69.8785 65.7235 69.5835 65.8346 69.3307C65.9457 69.0779 66.2407 68.963 66.4935 69.0741L70.6133 70.8846ZM26.1925 43.7625C26.1843 55.0705 32.1296 63.8044 40.61 68.7407C49.0992 73.6821 60.124 74.8119 70.2307 70.8764L70.5935 71.8082C60.1999 75.8555 48.8565 74.6979 40.1069 69.605C31.3484 64.5068 25.184 55.4592 25.1925 43.7618L26.1925 43.7625Z" fill="#444444"/>
<defs>
<radialGradient id="paint0_radial_29_124" cx="0" cy="0" r="1" gradientUnits="userSpaceOnUse" gradientTransform="translate(77.2 23.0002) rotate(42.0157) scale(119.522 740.071)">
<stop stop-color="#B3CCFF"/>
<stop offset="0.496691" stop-color="#6EA0EC"/>
<stop offset="1" stop-color="#3C77F3"/>
</radialGradient>
<radialGradient id="paint1_radial_29_124" cx="0" cy="0" r="1" gradientUnits="userSpaceOnUse" gradientTransform="translate(77.2 23.0002) rotate(42.0157) scale(119.522 740.071)">
<stop stop-color="#B3CCFF"/>
<stop offset="0.496691" stop-color="#6EA0EC"/>
<stop offset="1" stop-color="#3C77F3"/>
</radialGradient>
<radialGradient id="paint2_radial_29_124" cx="0" cy="0" r="1" gradientUnits="userSpaceOnUse" gradientTransform="translate(77.2 23.0002) rotate(42.0157) scale(119.522 740.071)">
<stop stop-color="#B3CCFF"/>
<stop offset="0.496691" stop-color="#6EA0EC"/>
<stop offset="1" stop-color="#3C77F3"/>
</radialGradient>
</defs>
</svg>
