<svg width="155" height="164" viewBox="0 0 155 164" fill="none" xmlns="http://www.w3.org/2000/svg">
<path d="M107.276 41.5305C110.994 40.5344 114.396 43.9364 113.4 47.6543L93.4967 121.933C92.5005 125.651 87.8532 126.896 85.1316 124.174L30.7558 69.7986C28.0342 67.0769 29.2794 62.4296 32.9973 61.4334L107.276 41.5305Z" fill="url(#paint0_radial_201_548)"/>
<g filter="url(#filter0_f_201_548)">
<path d="M24.0594 117.577C22.8654 113.917 26.0802 110.338 29.8461 111.133L56.9606 116.861C60.7265 117.656 62.2191 122.23 59.6473 125.094L41.13 145.712C38.5581 148.576 33.8508 147.581 32.6567 143.922L24.0594 117.577Z" fill="url(#paint1_radial_201_548)"/>
</g>
<defs>
<filter id="filter0_f_201_548" x="19.8064" y="107.021" width="45.125" height="44.3516" filterUnits="userSpaceOnUse" color-interpolation-filters="sRGB">
<feFlood flood-opacity="0" result="BackgroundImageFix"/>
<feBlend mode="normal" in="SourceGraphic" in2="BackgroundImageFix" result="shape"/>
<feGaussianBlur stdDeviation="2" result="effect1_foregroundBlur_201_548"/>
</filter>
<radialGradient id="paint0_radial_201_548" cx="0" cy="0" r="1" gradientUnits="userSpaceOnUse" gradientTransform="translate(68.7139 -7.63807) rotate(87.0157) scale(162.542 1006.45)">
<stop stop-color="#B3CCFF"/>
<stop offset="0.496691" stop-color="#6EA0EC"/>
<stop offset="1" stop-color="#3C77F3"/>
</radialGradient>
<radialGradient id="paint1_radial_201_548" cx="0" cy="0" r="1" gradientUnits="userSpaceOnUse" gradientTransform="translate(0.17798 132.943) rotate(-6.05718) scale(77.6891 481.046)">
<stop stop-color="#B3CCFF"/>
<stop offset="0.496691" stop-color="#6EA0EC"/>
<stop offset="1" stop-color="#3C77F3"/>
</radialGradient>
</defs>
</svg>
