<svg width="193" height="155" viewBox="0 0 193 155" fill="none" xmlns="http://www.w3.org/2000/svg">
<g filter="url(#filter0_f_201_549)">
<path d="M37.2711 45.9668C38.9662 43.3962 42.8084 43.6247 44.1871 46.378L66.5084 90.9573C67.8871 93.7106 65.7681 96.9238 62.6944 96.7411L12.9269 93.7824C9.85315 93.5996 8.12986 90.158 9.825 87.5874L37.2711 45.9668Z" fill="url(#paint0_radial_201_549)"/>
</g>
<path d="M94.0142 26.8031C94.5893 23.7781 98.2234 22.51 100.556 24.5206L169.686 84.1175C172.018 86.128 171.3 89.9093 168.392 90.9238L82.2145 120.994C79.3072 122.009 76.392 119.495 76.9671 116.47L94.0142 26.8031Z" fill="url(#paint1_radial_201_549)"/>
<defs>
<filter id="filter0_f_201_549" x="5.15884" y="40.1687" width="65.7791" height="60.5798" filterUnits="userSpaceOnUse" color-interpolation-filters="sRGB">
<feFlood flood-opacity="0" result="BackgroundImageFix"/>
<feBlend mode="normal" in="SourceGraphic" in2="BackgroundImageFix" result="shape"/>
<feGaussianBlur stdDeviation="2" result="effect1_foregroundBlur_201_549"/>
</filter>
<radialGradient id="paint0_radial_201_549" cx="0" cy="0" r="1" gradientUnits="userSpaceOnUse" gradientTransform="translate(-3.71222 37.5197) rotate(45.418) scale(109.912 680.569)">
<stop stop-color="#B3CCFF"/>
<stop offset="0.496691" stop-color="#6EA0EC"/>
<stop offset="1" stop-color="#3C77F3"/>
</radialGradient>
<radialGradient id="paint1_radial_201_549" cx="0" cy="0" r="1" gradientUnits="userSpaceOnUse" gradientTransform="translate(59.5 -20.5) rotate(53.7538) scale(202.112 1251.46)">
<stop stop-color="#B3CCFF"/>
<stop offset="0.559326" stop-color="#6EA0EC"/>
<stop offset="1" stop-color="#3C77F3"/>
</radialGradient>
</defs>
</svg>
