<svg width="107" height="107" viewBox="0 0 107 107" fill="none" xmlns="http://www.w3.org/2000/svg">
<path fill-rule="evenodd" clip-rule="evenodd" d="M104.685 38.8182C112.997 66.8844 96.9832 96.374 68.9171 104.686C40.8512 112.997 11.3614 96.9836 3.04962 68.9175C-5.26205 40.8516 10.7519 11.3617 38.8179 3.04999C66.884 -5.26174 96.3737 10.7523 104.685 38.8182ZM37.7523 49.2234C42.5336 47.8074 45.262 42.7831 43.8459 38.0013C42.4299 33.22 37.4055 30.4915 32.6242 31.9075C27.8424 33.3236 25.1141 38.348 26.5301 43.1293C27.9462 47.9111 32.9705 50.6395 37.7523 49.2234ZM64.8548 41.197C69.6366 39.7809 72.365 34.7565 70.9489 29.9748C69.5329 25.1935 64.5085 22.465 59.7268 23.8811C54.9454 25.2971 52.2171 30.3215 53.6331 35.1028C55.0492 39.8846 60.0735 42.613 64.8548 41.197ZM59.4834 71.4486C47.8414 74.8963 35.6085 68.2534 32.1607 56.6115L23.1264 59.287C28.0517 75.9184 45.5275 85.4084 62.1589 80.4831C78.7908 75.5576 88.2803 58.0818 83.355 41.4504L74.3205 44.1259C77.7682 55.7679 71.1258 68.0007 59.4834 71.4486Z" fill="url(#paint0_radial_29_199)"/>
<defs>
<radialGradient id="paint0_radial_29_199" cx="0" cy="0" r="1" gradientUnits="userSpaceOnUse" gradientTransform="translate(-23.1799 21.4105) rotate(25.5192) scale(158.365 980.585)">
<stop stop-color="#B3CCFF"/>
<stop offset="0.496691" stop-color="#6EA0EC"/>
<stop offset="1" stop-color="#3C77F3"/>
</radialGradient>
</defs>
</svg>
