<svg width="149" height="156" viewBox="0 0 149 156" fill="none" xmlns="http://www.w3.org/2000/svg">
<g filter="url(#filter0_f_201_552)">
<path fill-rule="evenodd" clip-rule="evenodd" d="M142.043 117.151C145.765 131.042 137.522 145.321 123.631 149.043C109.74 152.765 95.4615 144.521 91.7394 130.63C88.0174 116.739 96.2609 102.461 110.152 98.7391C124.043 95.017 138.321 103.261 142.043 117.151ZM109.036 121.403C111.402 120.769 112.807 118.336 112.173 115.97C111.539 113.603 109.106 112.199 106.74 112.833C104.373 113.467 102.968 115.9 103.602 118.266C104.237 120.633 106.669 122.037 109.036 121.403ZM122.45 117.809C124.817 117.175 126.221 114.742 125.587 112.375C124.953 110.009 122.52 108.604 120.154 109.238C117.787 109.872 116.383 112.305 117.017 114.672C117.651 117.038 120.084 118.443 122.45 117.809ZM119.424 132.597C113.662 134.141 107.739 130.722 106.195 124.96L101.723 126.158C103.929 134.389 112.39 139.275 120.622 137.069C128.854 134.863 133.739 126.402 131.533 118.171L127.061 119.369C128.605 125.131 125.186 131.053 119.424 132.597Z" fill="url(#paint0_radial_201_552)"/>
</g>
<path fill-rule="evenodd" clip-rule="evenodd" d="M112.873 72.7679C106.859 100.93 79.1549 118.886 50.9924 112.873C22.8301 106.859 4.87457 79.1549 10.8877 50.9924C16.9009 22.8301 44.6055 4.8746 72.7679 10.8877C100.93 16.9009 118.886 44.6055 112.873 72.7679ZM50.1372 50.2894C54.935 51.3138 59.6551 48.2546 60.6796 43.4564C61.704 38.6587 58.6449 33.9384 53.8471 32.914C49.049 31.8895 44.3288 34.9488 43.3044 39.7465C42.2799 44.5447 45.339 49.2649 50.1372 50.2894ZM77.3329 56.0961C82.1311 57.1206 86.8512 54.0614 87.8757 49.2632C88.9001 44.4655 85.841 39.7452 81.0428 38.7207C76.2451 37.6963 71.5249 40.7556 70.5005 45.5533C69.476 50.3515 72.5351 55.0717 77.3329 56.0961ZM58.4673 79.7137C46.7853 77.2194 39.3371 65.727 41.8313 54.0451L32.766 52.1095C29.2027 68.798 39.8431 85.2159 56.5316 88.7792C73.2206 92.3426 89.6381 81.702 93.2014 65.0134L84.1359 63.0778C81.6416 74.7597 70.1496 82.2081 58.4673 79.7137Z" fill="url(#paint1_radial_201_552)"/>
<defs>
<filter id="filter0_f_201_552" x="86.8457" y="93.8452" width="60.0909" height="60.0913" filterUnits="userSpaceOnUse" color-interpolation-filters="sRGB">
<feFlood flood-opacity="0" result="BackgroundImageFix"/>
<feBlend mode="normal" in="SourceGraphic" in2="BackgroundImageFix" result="shape"/>
<feGaussianBlur stdDeviation="2" result="effect1_foregroundBlur_201_552"/>
</filter>
<radialGradient id="paint0_radial_201_552" cx="0" cy="0" r="1" gradientUnits="userSpaceOnUse" gradientTransform="translate(79.4667 106.961) rotate(27.0157) scale(77.8056 481.767)">
<stop stop-color="#B3CCFF"/>
<stop offset="0.496691" stop-color="#6EA0EC"/>
<stop offset="1" stop-color="#3C77F3"/>
</radialGradient>
<radialGradient id="paint1_radial_201_552" cx="0" cy="0" r="1" gradientUnits="userSpaceOnUse" gradientTransform="translate(10.5571 -2.39531) rotate(54.0683) scale(155.802 964.716)">
<stop stop-color="#B3CCFF"/>
<stop offset="0.496691" stop-color="#6EA0EC"/>
<stop offset="1" stop-color="#3C77F3"/>
</radialGradient>
</defs>
</svg>
