<svg width="226" height="226" viewBox="0 0 226 226" fill="none" xmlns="http://www.w3.org/2000/svg">
<path d="M0.650391 48C0.650391 31.1984 0.650391 22.7976 3.9202 16.3803C6.7964 10.7354 11.3858 6.14601 17.0307 3.2698C23.448 0 31.8488 0 48.6504 0H177.738C194.539 0 202.94 0 209.357 3.2698C215.002 6.14601 219.592 10.7354 222.468 16.3803C225.738 22.7976 225.738 31.1984 225.738 48V177.087C225.738 193.889 225.738 202.29 222.468 208.707C219.592 214.352 215.002 218.941 209.357 221.818C202.94 225.087 194.539 225.087 177.738 225.087H48.6504C31.8488 225.087 23.448 225.087 17.0307 221.818C11.3858 218.941 6.7964 214.352 3.9202 208.707C0.650391 202.29 0.650391 193.889 0.650391 177.087V48Z" fill="url(#paint0_linear_74_828)"/>
<path fill-rule="evenodd" clip-rule="evenodd" d="M171.701 83.6021C172.549 80.9492 171.701 78.9998 167.665 78.9998H154.318C150.924 78.9998 149.36 80.6838 148.511 82.5407C148.511 82.5407 141.724 98.06 132.109 108.141C128.998 111.059 127.584 111.987 125.887 111.987C125.039 111.987 123.811 111.059 123.811 108.406V83.6021C123.811 80.4186 122.826 78.9998 119.997 78.9998H99.0237C96.903 78.9998 95.6275 80.4773 95.6275 81.8776C95.6275 84.8955 100.435 85.5915 100.93 94.0807V112.518C100.93 116.56 100.152 117.293 98.4554 117.293C93.9307 117.293 82.9245 101.705 76.3968 83.8672C75.1175 80.4003 73.8344 78.9998 70.4233 78.9998H57.0765C53.2631 78.9998 52.5004 80.6838 52.5004 82.5407C52.5004 85.8569 57.0253 102.305 73.569 124.058C84.598 138.914 100.137 146.967 114.277 146.967C122.761 146.967 123.811 145.178 123.811 142.097V130.869C123.811 127.292 124.614 126.578 127.301 126.578C129.281 126.578 132.674 127.507 140.593 134.669C149.642 143.158 151.134 146.967 156.225 146.967H169.571C173.385 146.967 175.291 145.178 174.191 141.648C172.988 138.13 168.667 133.026 162.934 126.976C159.823 123.527 155.157 119.814 153.743 117.956C151.763 115.569 152.329 114.508 153.743 112.385C153.743 112.385 170.004 90.8973 171.701 83.6021Z" fill="white"/>
<defs>
<linearGradient id="paint0_linear_74_828" x1="128.75" y1="231.8" x2="23.5254" y2="-4.82013e-06" gradientUnits="userSpaceOnUse">
<stop offset="0.0729167" stop-color="#1568C8"/>
<stop offset="0.927083" stop-color="#3F98FF"/>
</linearGradient>
</defs>
</svg>
