<svg width="69" height="65" viewBox="0 0 69 65" fill="none" xmlns="http://www.w3.org/2000/svg">
<g filter="url(#filter0_f_29_203)">
<path d="M31.0624 57.9752C39.0089 55.4905 50.6827 51.3269 56.5577 46.7615C60.9512 43.3522 63.8203 38.2098 64.4099 32.6867C65.9264 20.1674 53.1161 10.2582 41.3132 14.7978C40.6504 15.0502 40.0105 15.3639 39.3536 15.6861C39.0856 15.8176 38.8146 15.9504 38.538 16.0811C38.4067 15.8048 38.281 15.5304 38.1568 15.2589C37.8524 14.5936 37.5558 13.9456 37.2026 13.3306C30.9417 2.3435 14.7522 1.90181 7.99875 12.5518C4.95797 17.2 3.92236 22.9969 5.16431 28.4176C6.82068 35.6712 13.2198 46.2856 17.7971 53.2404C19.0724 55.1786 22.7372 60.3496 22.7372 60.3496C22.7372 60.3496 28.8481 58.6678 31.0624 57.9752Z" fill="url(#paint0_radial_29_203)"/>
</g>
<defs>
<filter id="filter0_f_29_203" x="0.650726" y="0.820801" width="67.882" height="63.5288" filterUnits="userSpaceOnUse" color-interpolation-filters="sRGB">
<feFlood flood-opacity="0" result="BackgroundImageFix"/>
<feBlend mode="normal" in="SourceGraphic" in2="BackgroundImageFix" result="shape"/>
<feGaussianBlur stdDeviation="2" result="effect1_foregroundBlur_29_203"/>
</filter>
<radialGradient id="paint0_radial_29_203" cx="0" cy="0" r="1" gradientUnits="userSpaceOnUse" gradientTransform="translate(5.55733 -2.25659) rotate(57.7816) scale(86.1246 520.879)">
<stop stop-color="#B3CCFF"/>
<stop offset="0.496691" stop-color="#6EA0EC"/>
<stop offset="1" stop-color="#3C77F3"/>
</radialGradient>
</defs>
</svg>
