<svg width="161" height="139" viewBox="0 0 161 139" fill="none" xmlns="http://www.w3.org/2000/svg">
<g filter="url(#filter0_f_201_551)">
<path d="M21.735 106.714C23.8052 109.632 26.6644 111.667 29.8246 112.731C34.5806 114.332 40.0087 113.73 44.4096 110.647C44.4212 110.641 44.4325 110.634 44.4434 110.627C44.4539 110.62 44.4645 110.613 44.4745 110.606L44.4901 110.594C44.5007 110.587 44.5109 110.579 44.521 110.572L60.1686 99.4399L65.899 117.768C65.9041 117.788 65.9109 117.804 65.9167 117.821C65.9196 117.829 65.922 117.837 65.9246 117.846C68.6459 126.413 77.8105 131.184 86.3849 128.485C94.967 125.79 99.7732 116.61 97.1319 108.01L97.1268 107.989C97.1226 107.971 97.119 107.958 97.1114 107.943L91.407 89.614L110.585 89.794C119.594 89.8787 127.012 82.5984 127.11 73.5712C127.208 64.5447 119.961 57.1256 110.947 57.0306L91.7773 56.8277L97.9044 38.6007C100.777 30.0408 96.1737 20.7369 87.6382 17.8636C79.1026 14.9903 69.8102 19.6166 66.9193 28.1788L60.7741 46.3825L45.3836 34.9513C45.3768 34.949 45.3689 34.9447 45.3614 34.9395C45.3515 34.9329 45.3418 34.9247 45.3345 34.9175C38.1032 29.5785 27.876 31.1152 22.5083 38.3512C17.1406 45.5867 18.6253 55.8292 25.8047 61.2198C25.8114 61.2246 25.8172 61.2296 25.8227 61.2345L25.8475 61.2551L25.8589 61.264L41.2339 72.7156L25.6068 83.8635C25.6004 83.87 25.592 83.8758 25.5836 83.8816C25.5751 83.8874 25.5668 83.8932 25.5603 83.8997C18.2483 89.1493 16.53 99.3772 21.735 106.714Z" fill="url(#paint0_radial_201_551)"/>
</g>
<g filter="url(#filter1_f_201_551)">
<path d="M115.183 44.6691C116.211 45.7444 117.51 46.4083 118.874 46.6547C120.927 47.0255 123.123 46.4495 124.747 44.915C124.751 44.912 124.756 44.9087 124.76 44.9051C124.763 44.9016 124.767 44.898 124.771 44.8944L124.777 44.8887C124.781 44.8849 124.784 44.8811 124.788 44.8775L130.551 39.3522L134.017 46.5442C134.02 46.5519 134.024 46.5581 134.027 46.5648C134.029 46.5679 134.03 46.5711 134.032 46.5746C135.669 49.9337 139.727 51.3415 143.091 49.7129C146.458 48.0851 147.879 44.0186 146.273 40.641L146.269 40.6327C146.266 40.6257 146.264 40.6204 146.26 40.6145L142.805 33.4208L150.704 32.3346C154.415 31.8245 157.025 28.3813 156.519 24.6623C156.014 20.9437 152.584 18.3305 148.871 18.8368L140.974 19.9131L142.391 12.0454C143.055 8.3509 140.599 4.80255 136.914 4.13711C133.229 3.47166 129.687 5.9367 129.016 9.63332L127.59 17.4925L120.568 13.7218C120.565 13.7212 120.562 13.7199 120.558 13.7183C120.554 13.7162 120.549 13.7134 120.546 13.7108C117.249 11.9524 113.135 13.2031 111.365 16.5041C109.595 19.8049 110.825 23.9279 114.104 25.7108C114.107 25.7124 114.11 25.7141 114.113 25.7158L114.124 25.7227L114.129 25.7257L121.146 29.5057L115.393 35.0364C115.39 35.0394 115.387 35.0423 115.384 35.0452C115.381 35.0481 115.378 35.051 115.376 35.0541C112.686 37.6557 112.598 41.9665 115.183 44.6691Z" fill="url(#paint1_radial_201_551)"/>
</g>
<defs>
<filter id="filter0_f_201_551" x="17.7253" y="16.0112" width="110.385" height="114.229" filterUnits="userSpaceOnUse" color-interpolation-filters="sRGB">
<feFlood flood-opacity="0" result="BackgroundImageFix"/>
<feBlend mode="normal" in="SourceGraphic" in2="BackgroundImageFix" result="shape"/>
<feGaussianBlur stdDeviation="0.5" result="effect1_foregroundBlur_201_551"/>
</filter>
<filter id="filter1_f_201_551" x="106.555" y="0.0288086" width="54.0266" height="54.3618" filterUnits="userSpaceOnUse" color-interpolation-filters="sRGB">
<feFlood flood-opacity="0" result="BackgroundImageFix"/>
<feBlend mode="normal" in="SourceGraphic" in2="BackgroundImageFix" result="shape"/>
<feGaussianBlur stdDeviation="2" result="effect1_foregroundBlur_201_551"/>
</filter>
<radialGradient id="paint0_radial_201_551" cx="0" cy="0" r="1" gradientUnits="userSpaceOnUse" gradientTransform="translate(22.8984 -3.92972) rotate(59.6879) scale(164.899 1017.03)">
<stop stop-color="#B3CCFF"/>
<stop offset="0.496691" stop-color="#6EA0EC"/>
<stop offset="1" stop-color="#3C77F3"/>
</radialGradient>
<radialGradient id="paint1_radial_201_551" cx="0" cy="0" r="1" gradientUnits="userSpaceOnUse" gradientTransform="translate(108.967 -0.910103) rotate(51.3206) scale(68.5545 422.816)">
<stop stop-color="#B3CCFF"/>
<stop offset="0.496691" stop-color="#6EA0EC"/>
<stop offset="1" stop-color="#3C77F3"/>
</radialGradient>
</defs>
</svg>
