<svg width="190" height="199" viewBox="0 0 190 199" fill="none" xmlns="http://www.w3.org/2000/svg">
<path d="M186.191 94.6577C190.797 96.1544 190.797 102.671 186.191 104.168L124.532 124.202C122.472 124.872 121.078 126.791 121.078 128.957L121.078 193.789C121.078 198.632 114.879 200.646 112.032 196.728L73.9256 144.278C72.6523 142.526 70.3955 141.792 68.3354 142.462L6.67715 162.496C2.07059 163.992 -1.76002 158.72 1.087 154.802L39.1939 102.352C40.4671 100.599 40.4671 98.2265 39.1939 96.474L1.08699 44.0244C-1.76003 40.1058 2.07062 34.8334 6.67717 36.3302L68.3354 56.3642C70.3955 57.0335 72.6523 56.3003 73.9256 54.5478L112.032 2.09818C114.879 -1.82038 121.078 0.19351 121.078 5.03713L121.078 69.8684C121.078 72.0346 122.472 73.9543 124.532 74.6237L186.191 94.6577Z" fill="url(#paint0_radial_127_604)"/>
<defs>
<radialGradient id="paint0_radial_127_604" cx="0" cy="0" r="1" gradientUnits="userSpaceOnUse" gradientTransform="translate(200.826 -41.3909) rotate(132.016) scale(344.859 2135.34)">
<stop stop-color="#B3CCFF"/>
<stop offset="0.496691" stop-color="#6EA0EC"/>
<stop offset="1" stop-color="#3C77F3"/>
</radialGradient>
</defs>
</svg>
