<svg width="37" height="45" viewBox="0 0 37 45" fill="none" xmlns="http://www.w3.org/2000/svg">
<path d="M0.211732 4.91316C-0.0139737 4.75406 -0.0679725 4.44212 0.091125 4.21641L2.68375 0.538329C2.84284 0.312622 3.15479 0.258624 3.38049 0.417721C3.6062 0.576817 3.6602 0.88876 3.5011 1.11447L1.19655 4.38387L4.46595 6.68843C4.69166 6.84753 4.74566 7.15947 4.58656 7.38517C4.42746 7.61088 4.11552 7.66488 3.88982 7.50578L0.211732 4.91316ZM34.2359 43.7793C37.5734 34.2264 35.5579 23.4169 29.5046 15.5514C23.4638 7.70224 13.3974 2.77933 0.585083 4.99715L0.414519 4.01181C13.6022 1.72903 24.0358 6.80581 30.2971 14.9415C36.5458 23.061 38.6343 34.2216 35.1799 44.1091L34.2359 43.7793Z" fill="#444444"/>
</svg>
