<svg width="97" height="78" viewBox="0 0 97 78" fill="none" xmlns="http://www.w3.org/2000/svg">
<path d="M14.1153 47.9733C11.1626 47.1 10.2625 43.3577 12.4951 41.2372L42.5746 12.669C44.8073 10.5484 48.4982 11.6401 49.2183 14.6339L58.9194 54.9676C59.6395 57.9614 56.8487 60.6121 53.8959 59.7388L14.1153 47.9733Z" fill="url(#paint0_radial_301_548)"/>
<path d="M69.2858 39.7591C68.0096 38.8978 68.1444 36.9781 69.5284 36.3035L86.1037 28.225C87.4877 27.5505 89.0829 28.6271 88.975 30.1629L87.6836 48.5568C87.5758 50.0927 85.8458 50.9358 84.5697 50.0745L69.2858 39.7591Z" fill="url(#paint1_radial_301_548)"/>
<defs>
<radialGradient id="paint0_radial_301_548" cx="0" cy="0" r="1" gradientUnits="userSpaceOnUse" gradientTransform="translate(-15.6161 62.6426) rotate(-30.5345) scale(106.392 658.771)">
<stop stop-color="#B3CCFF"/>
<stop offset="0.559326" stop-color="#6EA0EC"/>
<stop offset="1" stop-color="#3C77F3"/>
</radialGradient>
<radialGradient id="paint1_radial_301_548" cx="0" cy="0" r="1" gradientUnits="userSpaceOnUse" gradientTransform="translate(54.0254 41.9022) rotate(-12.9944) scale(48.7688 301.973)">
<stop stop-color="#B3CCFF"/>
<stop offset="0.559326" stop-color="#6EA0EC"/>
<stop offset="1" stop-color="#3C77F3"/>
</radialGradient>
</defs>
</svg>
